<?xml version="1.0" encoding="utf-8"?>
<!-- Generator: Adobe Illustrator 16.0.0, SVG Export Plug-In . SVG Version: 6.00 Build 0)  -->
<!DOCTYPE svg PUBLIC "-//W3C//DTD SVG 1.0//EN" "http://www.w3.org/TR/2001/REC-SVG-20010904/DTD/svg10.dtd">
<svg version="1.0" id="Layer_1" xmlns="http://www.w3.org/2000/svg" xmlns:xlink="http://www.w3.org/1999/xlink" x="0px" y="0px"
	 width="42px" height="42px" viewBox="579 579 42 42" enable-background="new 579 579 42 42" xml:space="preserve">
<g opacity="0.4">
	<image overflow="visible" width="107" height="107" xlink:href="C1E4951E61A4DC26.png"  transform="matrix(1 0 0 1 546.5 546.5)">
	</image>
</g>
<g>
	<circle fill="#FFFFFF" cx="600" cy="600" r="19"/>
</g>
<g opacity="0.5">
	<path fill="#151B39" d="M603.253,607.005c0.015-0.017,0.031-0.017,0.046-0.032c0.342-0.076,0.573-0.278,0.667-0.618
		c0.092-0.341,0-0.636-0.265-0.883c-1.301-1.239-2.585-2.493-3.886-3.731c-0.558-0.527-1.1-1.069-1.657-1.596
		c-0.016-0.015-0.031-0.031-0.062-0.062c0.046-0.047,0.093-0.093,0.124-0.14c1.796-1.812,3.609-3.624,5.404-5.451
		c0.356-0.356,0.388-0.867,0.062-1.208c-0.325-0.372-0.882-0.387-1.255-0.031c-0.494,0.496-0.99,1.006-1.501,1.502
		c-1.519,1.533-3.036,3.066-4.569,4.599c-0.17,0.17-0.325,0.355-0.356,0.604c-0.031,0.31,0.062,0.557,0.279,0.774
		c0.836,0.806,1.672,1.61,2.508,2.417c1.161,1.113,2.323,2.229,3.484,3.359c0.217,0.201,0.419,0.418,0.728,0.479
		C603.113,607.005,603.19,607.005,603.253,607.005z"/>
</g>
</svg>
